# xmcd
#
# Track frame offsets:
#	150
#	17823
#	36622
#
# Disc length: 720 seconds
#
# Revision: 2
# Processed by: cddbd v1.5.2PL0 Copyright (c) Steve Scherf et al.
# Submitted via: audiograbber 1.83.01
#
DISCID=2202ce03
DTITLE=GYM - Fever to Future
DYEAR=2006
DGENRE=J-POP
TTITLE0=Fever and Future (Golf, Yamashita, Mike)
TTITLE1=Houkago Blues (Yamashita)
TTITLE2=Run For Your Love (Golf, Mike)
EXTD=
EXTT0=
EXTT1=
EXTT2=
PLAYORDER=
